<?xml version="1.0" encoding="utf-8"?>
<!-- Generated by Mocodo 4.3.3 -->
<svg width="1516" height="860" viewBox="0 0 1516 860" xmlns="http://www.w3.org/2000/svg">
<rect x="0" y="0" width="1516" height="860" fill="none" stroke="none" stroke-width="0"/>

<!-- Association CONCERNER -->
<g>
	<line x1="284" y1="98" x2="107" y2="98" stroke="#726f83" stroke-width="1"/>
	<line x1="107" y1="291" x2="107" y2="98" stroke="#726f83" stroke-width="1"/>
	<g>
		<path d="M139 72 a14 14 90 0 1 14 14 V98 h-92 V86 a14 14 90 0 1 14 -14" fill="#b2bba4" stroke="#b2bba4" stroke-width="0"/>
		<path d="M153 98 v12 a14 14 90 0 1 -14 14 H75 a14 14 90 0 1 -14 -14 V98 H92" fill="#ccd6ba" stroke="#ccd6ba" stroke-width="0"/>
		<rect x="61" y="72" width="92" height="52" fill="none" rx="14" stroke="#85956b" stroke-width="1.5"/>
		<line x1="61" y1="98" x2="153" y2="98" stroke="#85956b" stroke-width="1"/>
		<text x="69" y="90.6" fill="#27360c" font-family="Courier New" font-size="14">Concerner</text>
	</g>
	<text x="183" y="114" fill="#726f83" font-family="Courier New" font-size="12">0,N</text>
	<text x="112" y="185" fill="#726f83" font-family="Courier New" font-size="12">1,1</text>
</g>

<!-- Association CLASSER -->
<g>
	<line x1="714" y1="98" x2="499" y2="98" stroke="#726f83" stroke-width="1"/>
	<line x1="284" y1="98" x2="499" y2="98" stroke="#726f83" stroke-width="1"/>
	<g>
		<path d="M522 72 a14 14 90 0 1 14 14 V98 h-74 V86 a14 14 90 0 1 14 -14" fill="#b2bba4" stroke="#b2bba4" stroke-width="0"/>
		<path d="M536 98 v12 a14 14 90 0 1 -14 14 H476 a14 14 90 0 1 -14 -14 V98 H74" fill="#ccd6ba" stroke="#ccd6ba" stroke-width="0"/>
		<rect x="462" y="72" width="74" height="52" fill="none" rx="14" stroke="#85956b" stroke-width="1.5"/>
		<line x1="462" y1="98" x2="536" y2="98" stroke="#85956b" stroke-width="1"/>
		<text x="469" y="90.6" fill="#27360c" font-family="Courier New" font-size="14">Classer</text>
	</g>
	<text x="604" y="114" fill="#726f83" font-family="Courier New" font-size="12">1,N</text>
	<text x="362" y="114" fill="#726f83" font-family="Courier New" font-size="12">1,1</text>
</g>

<!-- Association MOBILISER -->
<g>
	<line x1="1102" y1="98" x2="895" y2="98" stroke="#726f83" stroke-width="1"/>
	<line x1="895" y1="291" x2="895" y2="98" stroke="#726f83" stroke-width="1"/>
	<g>
		<path d="M927 72 a14 14 90 0 1 14 14 V98 h-92 V86 a14 14 90 0 1 14 -14" fill="#b2bba4" stroke="#b2bba4" stroke-width="0"/>
		<path d="M941 98 v12 a14 14 90 0 1 -14 14 H863 a14 14 90 0 1 -14 -14 V98 H92" fill="#ccd6ba" stroke="#ccd6ba" stroke-width="0"/>
		<rect x="849" y="72" width="92" height="52" fill="none" rx="14" stroke="#85956b" stroke-width="1.5"/>
		<line x1="849" y1="98" x2="941" y2="98" stroke="#85956b" stroke-width="1"/>
		<text x="857" y="90.6" fill="#27360c" font-family="Courier New" font-size="14">Mobiliser</text>
	</g>
	<text x="997" y="114" fill="#726f83" font-family="Courier New" font-size="12">0,N</text>
	<text x="900" y="158" fill="#726f83" font-family="Courier New" font-size="12">1,1</text>
</g>

<!-- Association EQUIPER -->
<g>
	<line x1="1102" y1="98" x2="1279" y2="98" stroke="#726f83" stroke-width="1"/>
	<line x1="1430" y1="98" x2="1279" y2="98" stroke="#726f83" stroke-width="1"/>
	<g>
		<path d="M1302 72 a14 14 90 0 1 14 14 V98 h-74 V86 a14 14 90 0 1 14 -14" fill="#b2bba4" stroke="#b2bba4" stroke-width="0"/>
		<path d="M1316 98 v12 a14 14 90 0 1 -14 14 H1256 a14 14 90 0 1 -14 -14 V98 H74" fill="#ccd6ba" stroke="#ccd6ba" stroke-width="0"/>
		<rect x="1242" y="72" width="74" height="52" fill="none" rx="14" stroke="#85956b" stroke-width="1.5"/>
		<line x1="1242" y1="98" x2="1316" y2="98" stroke="#85956b" stroke-width="1"/>
		<text x="1249" y="90.6" fill="#27360c" font-family="Courier New" font-size="14">Équiper</text>
	</g>
	<text x="1184" y="114" fill="#726f83" font-family="Courier New" font-size="12">0,N</text>
	<text x="1325" y="114" fill="#726f83" font-family="Courier New" font-size="12">1,1</text>
</g>

<!-- Association REGROUPER -->
<g>
	<line x1="499" y1="291" x2="284" y2="291" stroke="#726f83" stroke-width="1"/>
	<line x1="107" y1="291" x2="284" y2="291" stroke="#726f83" stroke-width="1"/>
	<g>
		<path d="M316 265 a14 14 90 0 1 14 14 V291 h-92 V279 a14 14 90 0 1 14 -14" fill="#b2bba4" stroke="#b2bba4" stroke-width="0"/>
		<path d="M330 291 v12 a14 14 90 0 1 -14 14 H252 a14 14 90 0 1 -14 -14 V291 H92" fill="#ccd6ba" stroke="#ccd6ba" stroke-width="0"/>
		<rect x="238" y="265" width="92" height="52" fill="none" rx="14" stroke="#85956b" stroke-width="1.5"/>
		<line x1="238" y1="291" x2="330" y2="291" stroke="#85956b" stroke-width="1"/>
		<text x="246" y="283.6" fill="#27360c" font-family="Courier New" font-size="14">Regrouper</text>
	</g>
	<text x="356" y="307" fill="#726f83" font-family="Courier New" font-size="12">1,N</text>
	<text x="210" y="307" fill="#726f83" font-family="Courier New" font-size="12">1,1</text>
</g>

<!-- Association ABOUTIR -->
<g>
	<line x1="895" y1="291" x2="714" y2="291" stroke="#726f83" stroke-width="1"/>
	<line x1="499" y1="291" x2="714" y2="291" stroke="#726f83" stroke-width="1"/>
	<g>
		<path d="M737 265 a14 14 90 0 1 14 14 V291 h-74 V279 a14 14 90 0 1 14 -14" fill="#b2bba4" stroke="#b2bba4" stroke-width="0"/>
		<path d="M751 291 v12 a14 14 90 0 1 -14 14 H691 a14 14 90 0 1 -14 -14 V291 H74" fill="#ccd6ba" stroke="#ccd6ba" stroke-width="0"/>
		<rect x="677" y="265" width="74" height="52" fill="none" rx="14" stroke="#85956b" stroke-width="1.5"/>
		<line x1="677" y1="291" x2="751" y2="291" stroke="#85956b" stroke-width="1"/>
		<text x="684" y="283.6" fill="#27360c" font-family="Courier New" font-size="14">Aboutir</text>
	</g>
	<text x="760" y="307" fill="#726f83" font-family="Courier New" font-size="12">0,1</text>
	<text x="619" y="307" fill="#726f83" font-family="Courier New" font-size="12">1,1</text>
</g>

<!-- Association ACCUEILLIR -->
<g>
	<line x1="1279" y1="291" x2="1102" y2="291" stroke="#726f83" stroke-width="1"/>
	<line x1="895" y1="291" x2="1102" y2="291" stroke="#726f83" stroke-width="1"/>
	<g>
		<path d="M1138 265 a14 14 90 0 1 14 14 V291 h-100 V279 a14 14 90 0 1 14 -14" fill="#b2bba4" stroke="#b2bba4" stroke-width="0"/>
		<path d="M1152 291 v12 a14 14 90 0 1 -14 14 H1066 a14 14 90 0 1 -14 -14 V291 H100" fill="#ccd6ba" stroke="#ccd6ba" stroke-width="0"/>
		<rect x="1052" y="265" width="100" height="52" fill="none" rx="14" stroke="#85956b" stroke-width="1.5"/>
		<line x1="1052" y1="291" x2="1152" y2="291" stroke="#85956b" stroke-width="1"/>
		<text x="1060" y="283.6" fill="#27360c" font-family="Courier New" font-size="14">Accueillir</text>
	</g>
	<text x="1186" y="307" fill="#726f83" font-family="Courier New" font-size="12">0,N</text>
	<text x="1007" y="283" fill="#726f83" font-family="Courier New" font-size="12">1,1</text>
</g>

<!-- Association PORTER -->
<g>
	<line x1="284" y1="493" x2="107" y2="493" stroke="#726f83" stroke-width="1"/>
	<line x1="107" y1="291" x2="107" y2="493" stroke="#726f83" stroke-width="1"/>
	<g>
		<path d="M126 467 a14 14 90 0 1 14 14 V493 h-66 V481 a14 14 90 0 1 14 -14" fill="#b2bba4" stroke="#b2bba4" stroke-width="0"/>
		<path d="M140 493 v12 a14 14 90 0 1 -14 14 H88 a14 14 90 0 1 -14 -14 V493 H66" fill="#ccd6ba" stroke="#ccd6ba" stroke-width="0"/>
		<rect x="74" y="467" width="66" height="52" fill="none" rx="14" stroke="#85956b" stroke-width="1.5"/>
		<line x1="74" y1="493" x2="140" y2="493" stroke="#85956b" stroke-width="1"/>
		<text x="81" y="485.6" fill="#27360c" font-family="Courier New" font-size="14">Porter</text>
	</g>
	<text x="170" y="509" fill="#726f83" font-family="Courier New" font-size="12">0,N</text>
	<text x="112" y="405" fill="#726f83" font-family="Courier New" font-size="12">1,1</text>
</g>

<!-- Association RETENIR -->
<g>
	<line x1="714" y1="493" x2="499" y2="493" stroke="#726f83" stroke-width="1"/>
	<line x1="284" y1="493" x2="499" y2="493" stroke="#726f83" stroke-width="1"/>
	<g>
		<path d="M522 467 a14 14 90 0 1 14 14 V493 h-74 V481 a14 14 90 0 1 14 -14" fill="#b2bba4" stroke="#b2bba4" stroke-width="0"/>
		<path d="M536 493 v12 a14 14 90 0 1 -14 14 H476 a14 14 90 0 1 -14 -14 V493 H74" fill="#ccd6ba" stroke="#ccd6ba" stroke-width="0"/>
		<rect x="462" y="467" width="74" height="52" fill="none" rx="14" stroke="#85956b" stroke-width="1.5"/>
		<line x1="462" y1="493" x2="536" y2="493" stroke="#85956b" stroke-width="1"/>
		<text x="469" y="485.6" fill="#27360c" font-family="Courier New" font-size="14">Retenir</text>
	</g>
	<text x="596" y="509" fill="#726f83" font-family="Courier New" font-size="12">1,N</text>
	<text x="375" y="509" fill="#726f83" font-family="Courier New" font-size="12">0,N</text>
</g>

<!-- Association CHOISIR -->
<g>
	<line x1="895" y1="291" x2="895" y2="493" stroke="#726f83" stroke-width="1"/>
	<line x1="714" y1="493" x2="895" y2="493" stroke="#726f83" stroke-width="1"/>
	<g>
		<path d="M918 467 a14 14 90 0 1 14 14 V493 h-74 V481 a14 14 90 0 1 14 -14" fill="#b2bba4" stroke="#b2bba4" stroke-width="0"/>
		<path d="M932 493 v12 a14 14 90 0 1 -14 14 H872 a14 14 90 0 1 -14 -14 V493 H74" fill="#ccd6ba" stroke="#ccd6ba" stroke-width="0"/>
		<rect x="858" y="467" width="74" height="52" fill="none" rx="14" stroke="#85956b" stroke-width="1.5"/>
		<line x1="858" y1="493" x2="932" y2="493" stroke="#85956b" stroke-width="1"/>
		<text x="865" y="485.6" fill="#27360c" font-family="Courier New" font-size="14">Choisir</text>
	</g>
	<text x="867" y="432" fill="#726f83" font-family="Courier New" font-size="12">0,1</text>
	<text x="809" y="509" fill="#726f83" font-family="Courier New" font-size="12">1,1</text>
</g>

<!-- Association PRODUIRE -->
<g>
	<line x1="895" y1="291" x2="1102" y2="493" stroke="#726f83" stroke-width="1"/>
	<line x1="895" y1="668" x2="1102" y2="493" stroke="#726f83" stroke-width="1"/>
	<g>
		<path d="M1129 467 a14 14 90 0 1 14 14 V493 h-82 V481 a14 14 90 0 1 14 -14" fill="#b2bba4" stroke="#b2bba4" stroke-width="0"/>
		<path d="M1143 493 v12 a14 14 90 0 1 -14 14 H1075 a14 14 90 0 1 -14 -14 V493 H82" fill="#ccd6ba" stroke="#ccd6ba" stroke-width="0"/>
		<rect x="1061" y="467" width="82" height="52" fill="none" rx="14" stroke="#85956b" stroke-width="1.5"/>
		<line x1="1061" y1="493" x2="1143" y2="493" stroke="#85956b" stroke-width="1"/>
		<text x="1068" y="485.6" fill="#27360c" font-family="Courier New" font-size="14">Produire</text>
	</g>
	<text x="1007" y="394.36" fill="#726f83" font-family="Courier New" font-size="12">1,1</text>
	<text x="935.93" y="607" fill="#726f83" font-family="Courier New" font-size="12">1,1</text>
</g>

<!-- Association COMPORTER -->
<g>
	<line x1="1430" y1="493" x2="1279" y2="493" stroke="#726f83" stroke-width="1"/>
	<line x1="1279" y1="291" x2="1279" y2="493" stroke="#726f83" stroke-width="1"/>
	<g>
		<path d="M1311 467 a14 14 90 0 1 14 14 V493 h-92 V481 a14 14 90 0 1 14 -14" fill="#b2bba4" stroke="#b2bba4" stroke-width="0"/>
		<path d="M1325 493 v12 a14 14 90 0 1 -14 14 H1247 a14 14 90 0 1 -14 -14 V493 H92" fill="#ccd6ba" stroke="#ccd6ba" stroke-width="0"/>
		<rect x="1233" y="467" width="92" height="52" fill="none" rx="14" stroke="#85956b" stroke-width="1.5"/>
		<line x1="1233" y1="493" x2="1325" y2="493" stroke="#85956b" stroke-width="1"/>
		<text x="1241" y="485.6" fill="#27360c" font-family="Courier New" font-size="14">Comporter</text>
	</g>
	<text x="1333" y="509" fill="#726f83" font-family="Courier New" font-size="12">0,N</text>
	<text x="1284" y="360" fill="#726f83" font-family="Courier New" font-size="12">1,1</text>
</g>

<!-- Association DECOUPER -->
<g>
	<line x1="499" y1="668" x2="284" y2="668" stroke="#726f83" stroke-width="1"/>
	<line x1="284" y1="493" x2="284" y2="668" stroke="#726f83" stroke-width="1"/>
	<g>
		<path d="M311 642 a14 14 90 0 1 14 14 V668 h-82 V656 a14 14 90 0 1 14 -14" fill="#b2bba4" stroke="#b2bba4" stroke-width="0"/>
		<path d="M325 668 v12 a14 14 90 0 1 -14 14 H257 a14 14 90 0 1 -14 -14 V668 H82" fill="#ccd6ba" stroke="#ccd6ba" stroke-width="0"/>
		<rect x="243" y="642" width="82" height="52" fill="none" rx="14" stroke="#85956b" stroke-width="1.5"/>
		<line x1="243" y1="668" x2="325" y2="668" stroke="#85956b" stroke-width="1"/>
		<text x="250" y="660.6" fill="#27360c" font-family="Courier New" font-size="14">Découper</text>
	</g>
	<text x="330" y="684" fill="#726f83" font-family="Courier New" font-size="12">1,N</text>
	<text x="289" y="589" fill="#726f83" font-family="Courier New" font-size="12">1,1</text>
</g>

<!-- Association CONTENIR -->
<g>
	<line x1="895" y1="668" x2="714" y2="668" stroke="#726f83" stroke-width="1"/>
	<line x1="499" y1="668" x2="714" y2="668" stroke="#726f83" stroke-width="1"/>
	<g>
		<path d="M741 642 a14 14 90 0 1 14 14 V668 h-82 V656 a14 14 90 0 1 14 -14" fill="#b2bba4" stroke="#b2bba4" stroke-width="0"/>
		<path d="M755 668 v12 a14 14 90 0 1 -14 14 H687 a14 14 90 0 1 -14 -14 V668 H82" fill="#ccd6ba" stroke="#ccd6ba" stroke-width="0"/>
		<rect x="673" y="642" width="82" height="52" fill="none" rx="14" stroke="#85956b" stroke-width="1.5"/>
		<line x1="673" y1="668" x2="755" y2="668" stroke="#85956b" stroke-width="1"/>
		<text x="680" y="660.6" fill="#27360c" font-family="Courier New" font-size="14">Contenir</text>
	</g>
	<text x="760" y="684" fill="#726f83" font-family="Courier New" font-size="12">1,N</text>
	<text x="645" y="684" fill="#726f83" font-family="Courier New" font-size="12">1,1</text>
</g>

<!-- Association MESURER_CLIMAT -->
<g>
	<line x1="895" y1="668" x2="1102" y2="668" stroke="#726f83" stroke-width="1"/>
	<line x1="1279" y1="668" x2="1102" y2="668" stroke="#726f83" stroke-width="1"/>
	<g>
		<path d="M1155 642 a14 14 90 0 1 14 14 V668 h-134 V656 a14 14 90 0 1 14 -14" fill="#b2bba4" stroke="#b2bba4" stroke-width="0"/>
		<path d="M1169 668 v12 a14 14 90 0 1 -14 14 H1049 a14 14 90 0 1 -14 -14 V668 H134" fill="#ccd6ba" stroke="#ccd6ba" stroke-width="0"/>
		<rect x="1035" y="642" width="134" height="52" fill="none" rx="14" stroke="#85956b" stroke-width="1.5"/>
		<line x1="1035" y1="668" x2="1169" y2="668" stroke="#85956b" stroke-width="1"/>
		<text x="1043" y="660.6" fill="#27360c" font-family="Courier New" font-size="14">Mesurer climat</text>
	</g>
	<text x="1007" y="684" fill="#726f83" font-family="Courier New" font-size="12">0,1</text>
	<text x="1174" y="684" fill="#726f83" font-family="Courier New" font-size="12">1,1</text>
</g>

<!-- Association DECLARER -->
<g>
	<line x1="1430" y1="798" x2="1430" y2="668" stroke="#726f83" stroke-width="1"/>
	<line x1="1430" y1="493" x2="1430" y2="668" stroke="#726f83" stroke-width="1"/>
	<g>
		<path d="M1457 642 a14 14 90 0 1 14 14 V668 h-82 V656 a14 14 90 0 1 14 -14" fill="#b2bba4" stroke="#b2bba4" stroke-width="0"/>
		<path d="M1471 668 v12 a14 14 90 0 1 -14 14 H1403 a14 14 90 0 1 -14 -14 V668 H82" fill="#ccd6ba" stroke="#ccd6ba" stroke-width="0"/>
		<rect x="1389" y="642" width="82" height="52" fill="none" rx="14" stroke="#85956b" stroke-width="1.5"/>
		<line x1="1389" y1="668" x2="1471" y2="668" stroke="#85956b" stroke-width="1"/>
		<text x="1396" y="660.6" fill="#27360c" font-family="Courier New" font-size="14">Déclarer</text>
	</g>
	<text x="1435" y="755" fill="#726f83" font-family="Courier New" font-size="12">0,N</text>
	<text x="1435" y="571" fill="#726f83" font-family="Courier New" font-size="12">1,1</text>
</g>

<!-- Association JOURNALISER -->
<g>
	<line x1="895" y1="668" x2="895" y2="798" stroke="#726f83" stroke-width="1"/>
	<line x1="1102" y1="798" x2="895" y2="798" stroke="#726f83" stroke-width="1"/>
	<g>
		<path d="M935 772 a14 14 90 0 1 14 14 V798 h-108 V786 a14 14 90 0 1 14 -14" fill="#b2bba4" stroke="#b2bba4" stroke-width="0"/>
		<path d="M949 798 v12 a14 14 90 0 1 -14 14 H855 a14 14 90 0 1 -14 -14 V798 H108" fill="#ccd6ba" stroke="#ccd6ba" stroke-width="0"/>
		<rect x="841" y="772" width="108" height="52" fill="none" rx="14" stroke="#85956b" stroke-width="1.5"/>
		<line x1="841" y1="798" x2="949" y2="798" stroke="#85956b" stroke-width="1"/>
		<text x="848" y="790.6" fill="#27360c" font-family="Courier New" font-size="14">Journaliser</text>
	</g>
	<text x="900" y="737" fill="#726f83" font-family="Courier New" font-size="12">1,1</text>
	<text x="988" y="814" fill="#726f83" font-family="Courier New" font-size="12">1,1</text>
</g>

<!-- Entity TAXON -->
<g>
	<g>
		<rect x="211" y="54" width="146" height="26" fill="#97b8ff" stroke="none" stroke-width="0" opacity="1"/>
		<rect x="211" y="80" width="146" height="62" fill="#c0d4ff" stroke="none" stroke-width="0" opacity="1"/>
		<rect x="211" y="54" width="146" height="88" fill="none" stroke="#578dff" stroke-width="1.5" opacity="1"/>
		<line x1="211" y1="80" x2="357" y2="80" stroke="#578dff" stroke-width="1"/>
	</g>
	<text x="263" y="72.6" fill="#131114" font-family="Courier New" font-size="14">Taxon</text>
	<text x="216" y="98.6" fill="#3e3c42" font-family="Courier New" font-size="14">code taxon</text>
	<line x1="216" y1="101" x2="301" y2="101" stroke="#3e3c42" stroke-width="1"/>
	<text x="216" y="116.6" fill="#3e3c42" font-family="Courier New" font-size="14">nom latin</text>
	<text x="216" y="134.6" fill="#3e3c42" font-family="Courier New" font-size="14">nom vernaculaire</text>
</g>

<!-- Entity GROUPE_TAXONOMIQUE -->
<g>
	<g>
		<rect x="632" y="54" width="164" height="26" fill="#97b8ff" stroke="none" stroke-width="0" opacity="1"/>
		<rect x="632" y="80" width="164" height="62" fill="#c0d4ff" stroke="none" stroke-width="0" opacity="1"/>
		<rect x="632" y="54" width="164" height="88" fill="none" stroke="#578dff" stroke-width="1.5" opacity="1"/>
		<line x1="632" y1="80" x2="796" y2="80" stroke="#578dff" stroke-width="1"/>
	</g>
	<text x="638" y="72.6" fill="#131114" font-family="Courier New" font-size="14">Groupe taxonomique</text>
	<text x="637" y="98.6" fill="#3e3c42" font-family="Courier New" font-size="14">réf groupe</text>
	<line x1="637" y1="101" x2="722" y2="101" stroke="#3e3c42" stroke-width="1"/>
	<text x="637" y="116.6" fill="#3e3c42" font-family="Courier New" font-size="14">niveau</text>
	<text x="637" y="134.6" fill="#3e3c42" font-family="Courier New" font-size="14">nom</text>
</g>

<!-- Entity ENREGISTREUR -->
<g>
	<g>
		<rect x="1025" y="54" width="154" height="26" fill="#97b8ff" stroke="none" stroke-width="0" opacity="1"/>
		<rect x="1025" y="80" width="154" height="62" fill="#c0d4ff" stroke="none" stroke-width="0" opacity="1"/>
		<rect x="1025" y="54" width="154" height="88" fill="none" stroke="#578dff" stroke-width="1.5" opacity="1"/>
		<line x1="1025" y1="80" x2="1179" y2="80" stroke="#578dff" stroke-width="1"/>
	</g>
	<text x="1051" y="72.6" fill="#131114" font-family="Courier New" font-size="14">Enregistreur</text>
	<text x="1030" y="98.6" fill="#3e3c42" font-family="Courier New" font-size="14">numéro de série</text>
	<line x1="1030" y1="101" x2="1157" y2="101" stroke="#3e3c42" stroke-width="1"/>
	<text x="1030" y="116.6" fill="#3e3c42" font-family="Courier New" font-size="14">version de modèle</text>
	<text x="1030" y="134.6" fill="#3e3c42" font-family="Courier New" font-size="14">commentaire</text>
</g>

<!-- Entity MICRO -->
<g>
	<g>
		<rect x="1353" y="9" width="154" height="26" fill="#97b8ff" stroke="none" stroke-width="0" opacity="1"/>
		<rect x="1353" y="35" width="154" height="152" fill="#c0d4ff" stroke="none" stroke-width="0" opacity="1"/>
		<rect x="1353" y="9" width="154" height="178" fill="none" stroke="#578dff" stroke-width="1.5" opacity="1"/>
		<line x1="1353" y1="35" x2="1507" y2="35" stroke="#578dff" stroke-width="1"/>
	</g>
	<text x="1409" y="27.6" fill="#131114" font-family="Courier New" font-size="14">Micro</text>
	<text x="1358" y="53.6" fill="#3e3c42" font-family="Courier New" font-size="14">réf micro</text>
	<line x1="1358" y1="56" x2="1435" y2="56" stroke="#3e3c42" stroke-width="1"/>
	<text x="1358" y="71.6" fill="#3e3c42" font-family="Courier New" font-size="14">référence modèle</text>
	<text x="1358" y="89.6" fill="#3e3c42" font-family="Courier New" font-size="14">bande passante</text>
	<text x="1358" y="107.6" fill="#3e3c42" font-family="Courier New" font-size="14">sensibilité</text>
	<text x="1358" y="125.6" fill="#3e3c42" font-family="Courier New" font-size="14">mis en service le</text>
	<text x="1358" y="143.6" fill="#3e3c42" font-family="Courier New" font-size="14">retiré le</text>
	<text x="1358" y="161.6" fill="#3e3c42" font-family="Courier New" font-size="14">actif</text>
	<text x="1358" y="179.6" fill="#3e3c42" font-family="Courier New" font-size="14">commentaire</text>
</g>

<!-- Entity OBSERVATION -->
<g>
	<g>
		<rect x="9" y="193" width="196" height="26" fill="#97b8ff" stroke="none" stroke-width="0" opacity="1"/>
		<rect x="9" y="219" width="196" height="170" fill="#c0d4ff" stroke="none" stroke-width="0" opacity="1"/>
		<rect x="9" y="193" width="196" height="196" fill="none" stroke="#578dff" stroke-width="1.5" opacity="1"/>
		<line x1="9" y1="219" x2="205" y2="219" stroke="#578dff" stroke-width="1"/>
	</g>
	<text x="60" y="211.6" fill="#131114" font-family="Courier New" font-size="14">Observation</text>
	<text x="14" y="237.6" fill="#3e3c42" font-family="Courier New" font-size="14">réf observation</text>
	<line x1="14" y1="240" x2="141" y2="240" stroke="#3e3c42" stroke-width="1"/>
	<text x="14" y="255.6" fill="#3e3c42" font-family="Courier New" font-size="14">début (s)</text>
	<text x="14" y="273.6" fill="#3e3c42" font-family="Courier New" font-size="14">fin (s)</text>
	<text x="14" y="291.6" fill="#3e3c42" font-family="Courier New" font-size="14">fréquence médiane (Hz)</text>
	<text x="14" y="309.6" fill="#3e3c42" font-family="Courier New" font-size="14">proba Tadarida</text>
	<text x="14" y="327.6" fill="#3e3c42" font-family="Courier New" font-size="14">proba observateur</text>
	<text x="14" y="345.6" fill="#3e3c42" font-family="Courier New" font-size="14">commentaire</text>
	<text x="14" y="363.6" fill="#3e3c42" font-family="Courier New" font-size="14">est référence</text>
	<text x="14" y="381.6" fill="#3e3c42" font-family="Courier New" font-size="14">mode de validation</text>
</g>

<!-- Entity RESULTATS_D_IDENTIFICATION -->
<g>
	<g>
		<rect x="384" y="238" width="230" height="26" fill="#97b8ff" stroke="none" stroke-width="0" opacity="1"/>
		<rect x="384" y="264" width="230" height="80" fill="#c0d4ff" stroke="none" stroke-width="0" opacity="1"/>
		<rect x="384" y="238" width="230" height="106" fill="none" stroke="#578dff" stroke-width="1.5" opacity="1"/>
		<line x1="384" y1="264" x2="614" y2="264" stroke="#578dff" stroke-width="1"/>
	</g>
	<text x="389" y="256.6" fill="#131114" font-family="Courier New" font-size="14">Résultats d’identification</text>
	<text x="389" y="282.6" fill="#3e3c42" font-family="Courier New" font-size="14">réf résultats</text>
	<line x1="389" y1="285" x2="499" y2="285" stroke="#3e3c42" stroke-width="1"/>
	<text x="389" y="300.6" fill="#3e3c42" font-family="Courier New" font-size="14">chemin</text>
	<text x="389" y="318.6" fill="#3e3c42" font-family="Courier New" font-size="14">format détecté</text>
	<text x="389" y="336.6" fill="#3e3c42" font-family="Courier New" font-size="14">importé le</text>
</g>

<!-- Entity PASSAGE -->
<g>
	<g>
		<rect x="788" y="166" width="214" height="26" fill="#97b8ff" stroke="none" stroke-width="0" opacity="1"/>
		<rect x="788" y="192" width="214" height="224" fill="#c0d4ff" stroke="none" stroke-width="0" opacity="1"/>
		<rect x="788" y="166" width="214" height="250" fill="none" stroke="#578dff" stroke-width="1.5" opacity="1"/>
		<line x1="788" y1="192" x2="1002" y2="192" stroke="#578dff" stroke-width="1"/>
	</g>
	<text x="865" y="184.6" fill="#131114" font-family="Courier New" font-size="14">Passage</text>
	<text x="793" y="210.6" fill="#3e3c42" font-family="Courier New" font-size="14">réf passage</text>
	<line x1="793" y1="213" x2="887" y2="213" stroke="#3e3c42" stroke-width="1"/>
	<text x="793" y="228.6" fill="#3e3c42" font-family="Courier New" font-size="14">numéro de passage</text>
	<text x="793" y="246.6" fill="#3e3c42" font-family="Courier New" font-size="14">année</text>
	<text x="793" y="264.6" fill="#3e3c42" font-family="Courier New" font-size="14">date d’enregistrement</text>
	<text x="793" y="282.6" fill="#3e3c42" font-family="Courier New" font-size="14">heure de début</text>
	<text x="793" y="300.6" fill="#3e3c42" font-family="Courier New" font-size="14">heure de fin</text>
	<text x="793" y="318.6" fill="#3e3c42" font-family="Courier New" font-size="14">paramètres d’acquisition</text>
	<text x="793" y="336.6" fill="#3e3c42" font-family="Courier New" font-size="14">statut workflow</text>
	<text x="793" y="354.6" fill="#3e3c42" font-family="Courier New" font-size="14">verdict de vérification</text>
	<text x="793" y="372.6" fill="#3e3c42" font-family="Courier New" font-size="14">commentaire</text>
	<text x="793" y="390.6" fill="#3e3c42" font-family="Courier New" font-size="14">données météo</text>
	<text x="793" y="408.6" fill="#3e3c42" font-family="Courier New" font-size="14">déposé le</text>
</g>

<!-- Entity POINT_D_ECOUTE -->
<g>
	<g>
		<rect x="1214" y="238" width="130" height="26" fill="#97b8ff" stroke="none" stroke-width="0" opacity="1"/>
		<rect x="1214" y="264" width="130" height="80" fill="#c0d4ff" stroke="none" stroke-width="0" opacity="1"/>
		<rect x="1214" y="238" width="130" height="106" fill="none" stroke="#578dff" stroke-width="1.5" opacity="1"/>
		<line x1="1214" y1="264" x2="1344" y2="264" stroke="#578dff" stroke-width="1"/>
	</g>
	<text x="1220" y="256.6" fill="#131114" font-family="Courier New" font-size="14">Point d’écoute</text>
	<text x="1219" y="282.6" fill="#3e3c42" font-family="Courier New" font-size="14">code</text>
	<line x1="1219" y1="285" x2="1254" y2="285" stroke="#3e3c42" stroke-width="1"/>
	<text x="1219" y="300.6" fill="#3e3c42" font-family="Courier New" font-size="14">latitude</text>
	<text x="1219" y="318.6" fill="#3e3c42" font-family="Courier New" font-size="14">longitude</text>
	<text x="1219" y="336.6" fill="#3e3c42" font-family="Courier New" font-size="14">description</text>
</g>

<!-- Entity SEQUENCE_D_ECOUTE -->
<g>
	<g>
		<rect x="198" y="413" width="172" height="26" fill="#97b8ff" stroke="none" stroke-width="0" opacity="1"/>
		<rect x="198" y="439" width="172" height="134" fill="#c0d4ff" stroke="none" stroke-width="0" opacity="1"/>
		<rect x="198" y="413" width="172" height="160" fill="none" stroke="#578dff" stroke-width="1.5" opacity="1"/>
		<line x1="198" y1="439" x2="370" y2="439" stroke="#578dff" stroke-width="1"/>
	</g>
	<text x="212" y="431.6" fill="#131114" font-family="Courier New" font-size="14">Séquence d’écoute</text>
	<text x="203" y="457.6" fill="#3e3c42" font-family="Courier New" font-size="14">réf séquence</text>
	<line x1="203" y1="460" x2="305" y2="460" stroke="#3e3c42" stroke-width="1"/>
	<text x="203" y="475.6" fill="#3e3c42" font-family="Courier New" font-size="14">nom de fichier</text>
	<text x="203" y="493.6" fill="#3e3c42" font-family="Courier New" font-size="14">index source</text>
	<text x="203" y="511.6" fill="#3e3c42" font-family="Courier New" font-size="14">décalage source (s)</text>
	<text x="203" y="529.6" fill="#3e3c42" font-family="Courier New" font-size="14">durée (s)</text>
	<text x="203" y="547.6" fill="#3e3c42" font-family="Courier New" font-size="14">chemin</text>
	<text x="203" y="565.6" fill="#3e3c42" font-family="Courier New" font-size="14">dans la sélection</text>
</g>

<!-- Entity SELECTION_D_ECOUTE -->
<g>
	<g>
		<rect x="624" y="449" width="180" height="26" fill="#97b8ff" stroke="none" stroke-width="0" opacity="1"/>
		<rect x="624" y="475" width="180" height="62" fill="#c0d4ff" stroke="none" stroke-width="0" opacity="1"/>
		<rect x="624" y="449" width="180" height="88" fill="none" stroke="#578dff" stroke-width="1.5" opacity="1"/>
		<line x1="624" y1="475" x2="804" y2="475" stroke="#578dff" stroke-width="1"/>
	</g>
	<text x="638" y="467.6" fill="#131114" font-family="Courier New" font-size="14">Sélection d’écoute</text>
	<text x="629" y="493.6" fill="#3e3c42" font-family="Courier New" font-size="14">réf sélection</text>
	<line x1="629" y1="496" x2="739" y2="496" stroke="#3e3c42" stroke-width="1"/>
	<text x="629" y="511.6" fill="#3e3c42" font-family="Courier New" font-size="14">méthode de sélection</text>
	<text x="629" y="529.6" fill="#3e3c42" font-family="Courier New" font-size="14">taille</text>
</g>

<!-- Entity SITE_DE_SUIVI -->
<g>
	<g>
		<rect x="1361" y="431" width="138" height="26" fill="#97b8ff" stroke="none" stroke-width="0" opacity="1"/>
		<rect x="1361" y="457" width="138" height="98" fill="#c0d4ff" stroke="none" stroke-width="0" opacity="1"/>
		<rect x="1361" y="431" width="138" height="124" fill="none" stroke="#578dff" stroke-width="1.5" opacity="1"/>
		<line x1="1361" y1="457" x2="1499" y2="457" stroke="#578dff" stroke-width="1"/>
	</g>
	<text x="1375" y="449.6" fill="#131114" font-family="Courier New" font-size="14">Site de suivi</text>
	<text x="1366" y="475.6" fill="#3e3c42" font-family="Courier New" font-size="14">numéro de carré</text>
	<line x1="1366" y1="478" x2="1493" y2="478" stroke="#3e3c42" stroke-width="1"/>
	<text x="1366" y="493.6" fill="#3e3c42" font-family="Courier New" font-size="14">nom convivial</text>
	<text x="1366" y="511.6" fill="#3e3c42" font-family="Courier New" font-size="14">protocole</text>
	<text x="1366" y="529.6" fill="#3e3c42" font-family="Courier New" font-size="14">commentaire</text>
	<text x="1366" y="547.6" fill="#3e3c42" font-family="Courier New" font-size="14">créé le</text>
</g>

<!-- Entity ENREGISTREMENT_ORIGINAL -->
<g>
	<g>
		<rect x="358" y="597" width="282" height="26" fill="#97b8ff" stroke="none" stroke-width="0" opacity="1"/>
		<rect x="358" y="623" width="282" height="116" fill="#c0d4ff" stroke="none" stroke-width="0" opacity="1"/>
		<rect x="358" y="597" width="282" height="142" fill="none" stroke="#578dff" stroke-width="1.5" opacity="1"/>
		<line x1="358" y1="623" x2="640" y2="623" stroke="#578dff" stroke-width="1"/>
	</g>
	<text x="402" y="615.6" fill="#131114" font-family="Courier New" font-size="14">Enregistrement original</text>
	<text x="363" y="641.6" fill="#3e3c42" font-family="Courier New" font-size="14">réf wav</text>
	<line x1="363" y1="644" x2="423" y2="644" stroke="#3e3c42" stroke-width="1"/>
	<text x="363" y="659.6" fill="#3e3c42" font-family="Courier New" font-size="14">nom de fichier</text>
	<text x="363" y="677.6" fill="#3e3c42" font-family="Courier New" font-size="14">chemin</text>
	<text x="363" y="695.6" fill="#3e3c42" font-family="Courier New" font-size="14">durée (s)</text>
	<text x="363" y="713.6" fill="#3e3c42" font-family="Courier New" font-size="14">fréquence d’échantillonnage (Hz)</text>
	<text x="363" y="731.6" fill="#3e3c42" font-family="Courier New" font-size="14">sha256</text>
</g>

<!-- Entity SESSION_D_ENREGISTREMENT -->
<g>
	<g>
		<rect x="788" y="615" width="214" height="26" fill="#97b8ff" stroke="none" stroke-width="0" opacity="1"/>
		<rect x="788" y="641" width="214" height="80" fill="#c0d4ff" stroke="none" stroke-width="0" opacity="1"/>
		<rect x="788" y="615" width="214" height="106" fill="none" stroke="#578dff" stroke-width="1.5" opacity="1"/>
		<line x1="788" y1="641" x2="1002" y2="641" stroke="#578dff" stroke-width="1"/>
	</g>
	<text x="794" y="633.6" fill="#131114" font-family="Courier New" font-size="14">Session d’enregistrement</text>
	<text x="793" y="659.6" fill="#3e3c42" font-family="Courier New" font-size="14">réf session</text>
	<line x1="793" y1="662" x2="887" y2="662" stroke="#3e3c42" stroke-width="1"/>
	<text x="793" y="677.6" fill="#3e3c42" font-family="Courier New" font-size="14">chemin racine</text>
	<text x="793" y="695.6" fill="#3e3c42" font-family="Courier New" font-size="14">octets originaux</text>
	<text x="793" y="713.6" fill="#3e3c42" font-family="Courier New" font-size="14">octets séquences</text>
</g>

<!-- Entity RELEVE_CLIMATIQUE -->
<g>
	<g>
		<rect x="1202" y="624" width="154" height="26" fill="#97b8ff" stroke="none" stroke-width="0" opacity="1"/>
		<rect x="1202" y="650" width="154" height="62" fill="#c0d4ff" stroke="none" stroke-width="0" opacity="1"/>
		<rect x="1202" y="624" width="154" height="88" fill="none" stroke="#578dff" stroke-width="1.5" opacity="1"/>
		<line x1="1202" y1="650" x2="1356" y2="650" stroke="#578dff" stroke-width="1"/>
	</g>
	<text x="1207" y="642.6" fill="#131114" font-family="Courier New" font-size="14">Relevé climatique</text>
	<text x="1207" y="668.6" fill="#3e3c42" font-family="Courier New" font-size="14">réf relevé</text>
	<line x1="1207" y1="671" x2="1292" y2="671" stroke="#3e3c42" stroke-width="1"/>
	<text x="1207" y="686.6" fill="#3e3c42" font-family="Courier New" font-size="14">chemin</text>
	<text x="1207" y="704.6" fill="#3e3c42" font-family="Courier New" font-size="14">mesures</text>
</g>

<!-- Entity JOURNAL_DU_CAPTEUR -->
<g>
	<g>
		<rect x="1016" y="745" width="172" height="26" fill="#97b8ff" stroke="none" stroke-width="0" opacity="1"/>
		<rect x="1016" y="771" width="172" height="80" fill="#c0d4ff" stroke="none" stroke-width="0" opacity="1"/>
		<rect x="1016" y="745" width="172" height="106" fill="none" stroke="#578dff" stroke-width="1.5" opacity="1"/>
		<line x1="1016" y1="771" x2="1188" y2="771" stroke="#578dff" stroke-width="1"/>
	</g>
	<text x="1026" y="763.6" fill="#131114" font-family="Courier New" font-size="14">Journal du capteur</text>
	<text x="1021" y="789.6" fill="#3e3c42" font-family="Courier New" font-size="14">réf journal</text>
	<line x1="1021" y1="792" x2="1115" y2="792" stroke="#3e3c42" stroke-width="1"/>
	<text x="1021" y="807.6" fill="#3e3c42" font-family="Courier New" font-size="14">chemin</text>
	<text x="1021" y="825.6" fill="#3e3c42" font-family="Courier New" font-size="14">événements analysés</text>
	<text x="1021" y="843.6" fill="#3e3c42" font-family="Courier New" font-size="14">anomalies détectées</text>
</g>

<!-- Entity UTILISATEUR -->
<g>
	<g>
		<rect x="1353" y="763" width="154" height="26" fill="#97b8ff" stroke="none" stroke-width="0" opacity="1"/>
		<rect x="1353" y="789" width="154" height="44" fill="#c0d4ff" stroke="none" stroke-width="0" opacity="1"/>
		<rect x="1353" y="763" width="154" height="70" fill="none" stroke="#578dff" stroke-width="1.5" opacity="1"/>
		<line x1="1353" y1="789" x2="1507" y2="789" stroke="#578dff" stroke-width="1"/>
	</g>
	<text x="1383" y="781.6" fill="#131114" font-family="Courier New" font-size="14">Utilisateur</text>
	<text x="1358" y="807.6" fill="#3e3c42" font-family="Courier New" font-size="14">identifiant local</text>
	<line x1="1358" y1="810" x2="1502" y2="810" stroke="#3e3c42" stroke-width="1"/>
	<text x="1358" y="825.6" fill="#3e3c42" font-family="Courier New" font-size="14">nom affiché</text>
</g>
</svg>