<?xml version="1.0" encoding="utf-8"?>
<!-- Generated by Mocodo 4.3.3 -->
<svg width="1455" height="680" viewBox="0 0 1455 680" xmlns="http://www.w3.org/2000/svg">
<rect x="0" y="0" width="1455" height="680" fill="none" stroke="none" stroke-width="0"/>

<!-- Association IDENTIFIER -->
<g>
	<line x1="95" y1="62" x2="268" y2="62" stroke="#726f83" stroke-width="1"/>
	<line x1="268" y1="219" x2="268" y2="62" stroke="#726f83" stroke-width="1"/>
	<g>
		<path d="M304 36 a14 14 90 0 1 14 14 V62 h-100 V50 a14 14 90 0 1 14 -14" fill="#b2bba4" stroke="#b2bba4" stroke-width="0"/>
		<path d="M318 62 v12 a14 14 90 0 1 -14 14 H232 a14 14 90 0 1 -14 -14 V62 H100" fill="#ccd6ba" stroke="#ccd6ba" stroke-width="0"/>
		<rect x="218" y="36" width="100" height="52" fill="none" rx="14" stroke="#85956b" stroke-width="1.5"/>
		<line x1="218" y1="62" x2="318" y2="62" stroke="#85956b" stroke-width="1"/>
		<text x="226" y="54.6" fill="#27360c" font-family="Courier New" font-size="14">Identifier</text>
	</g>
	<text x="186" y="78" fill="#726f83" font-family="Courier New" font-size="12">0,N</text>
	<text x="273" y="131" fill="#726f83" font-family="Courier New" font-size="12">1,1</text>
</g>

<!-- Association ANNOTER -->
<g>
	<line x1="846" y1="219" x2="656" y2="62" stroke="#726f83" stroke-width="1"/>
	<line x1="466" y1="62" x2="656" y2="62" stroke="#726f83" stroke-width="1"/>
	<g>
		<path d="M679 36 a14 14 90 0 1 14 14 V62 h-74 V50 a14 14 90 0 1 14 -14" fill="#b2bba4" stroke="#b2bba4" stroke-width="0"/>
		<path d="M693 62 v12 a14 14 90 0 1 -14 14 H633 a14 14 90 0 1 -14 -14 V62 H74" fill="#ccd6ba" stroke="#ccd6ba" stroke-width="0"/>
		<rect x="619" y="36" width="74" height="52" fill="none" rx="14" stroke="#85956b" stroke-width="1.5"/>
		<line x1="619" y1="62" x2="693" y2="62" stroke="#85956b" stroke-width="1"/>
		<text x="626" y="54.6" fill="#27360c" font-family="Courier New" font-size="14">Annoter</text>
	</g>
	<text x="748.06" y="131" fill="#726f83" font-family="Courier New" font-size="12">0,1</text>
	<text x="586" y="78" fill="#726f83" font-family="Courier New" font-size="12">1,1</text>
</g>

<!-- Association UTILISER -->
<g>
	<line x1="1032" y1="62" x2="846" y2="62" stroke="#726f83" stroke-width="1"/>
	<line x1="846" y1="219" x2="846" y2="62" stroke="#726f83" stroke-width="1"/>
	<g>
		<path d="M873 36 a14 14 90 0 1 14 14 V62 h-82 V50 a14 14 90 0 1 14 -14" fill="#b2bba4" stroke="#b2bba4" stroke-width="0"/>
		<path d="M887 62 v12 a14 14 90 0 1 -14 14 H819 a14 14 90 0 1 -14 -14 V62 H82" fill="#ccd6ba" stroke="#ccd6ba" stroke-width="0"/>
		<rect x="805" y="36" width="82" height="52" fill="none" rx="14" stroke="#85956b" stroke-width="1.5"/>
		<line x1="805" y1="62" x2="887" y2="62" stroke="#85956b" stroke-width="1"/>
		<text x="812" y="54.6" fill="#27360c" font-family="Courier New" font-size="14">Utiliser</text>
	</g>
	<text x="931" y="78" fill="#726f83" font-family="Courier New" font-size="12">1,N</text>
	<text x="851" y="131" fill="#726f83" font-family="Courier New" font-size="12">1,1</text>
</g>

<!-- Association PORTER -->
<g>
	<line x1="1032" y1="62" x2="1218" y2="62" stroke="#726f83" stroke-width="1"/>
	<line x1="1218" y1="219" x2="1218" y2="62" stroke="#726f83" stroke-width="1"/>
	<g>
		<path d="M1237 36 a14 14 90 0 1 14 14 V62 h-66 V50 a14 14 90 0 1 14 -14" fill="#b2bba4" stroke="#b2bba4" stroke-width="0"/>
		<path d="M1251 62 v12 a14 14 90 0 1 -14 14 H1199 a14 14 90 0 1 -14 -14 V62 H66" fill="#ccd6ba" stroke="#ccd6ba" stroke-width="0"/>
		<rect x="1185" y="36" width="66" height="52" fill="none" rx="14" stroke="#85956b" stroke-width="1.5"/>
		<line x1="1185" y1="62" x2="1251" y2="62" stroke="#85956b" stroke-width="1"/>
		<text x="1192" y="54.6" fill="#27360c" font-family="Courier New" font-size="14">Porter</text>
	</g>
	<text x="1110" y="78" fill="#726f83" font-family="Courier New" font-size="12">1,1</text>
	<text x="1223" y="149" fill="#726f83" font-family="Courier New" font-size="12">1,1</text>
</g>

<!-- Association CLASSER -->
<g>
	<line x1="95" y1="367" x2="95" y2="219" stroke="#726f83" stroke-width="1"/>
	<line x1="95" y1="62" x2="95" y2="219" stroke="#726f83" stroke-width="1"/>
	<g>
		<path d="M118 193 a14 14 90 0 1 14 14 V219 h-74 V207 a14 14 90 0 1 14 -14" fill="#b2bba4" stroke="#b2bba4" stroke-width="0"/>
		<path d="M132 219 v12 a14 14 90 0 1 -14 14 H72 a14 14 90 0 1 -14 -14 V219 H74" fill="#ccd6ba" stroke="#ccd6ba" stroke-width="0"/>
		<rect x="58" y="193" width="74" height="52" fill="none" rx="14" stroke="#85956b" stroke-width="1.5"/>
		<line x1="58" y1="219" x2="132" y2="219" stroke="#85956b" stroke-width="1"/>
		<text x="65" y="211.6" fill="#27360c" font-family="Courier New" font-size="14">Classer</text>
	</g>
	<text x="100" y="315" fill="#726f83" font-family="Courier New" font-size="12">1,N</text>
	<text x="100" y="122" fill="#726f83" font-family="Courier New" font-size="12">1,1</text>
</g>

<!-- Association AGREGER -->
<g>
	<line x1="466" y1="62" x2="466" y2="219" stroke="#726f83" stroke-width="1"/>
	<line x1="268" y1="219" x2="466" y2="219" stroke="#726f83" stroke-width="1"/>
	<g>
		<path d="M489 193 a14 14 90 0 1 14 14 V219 h-74 V207 a14 14 90 0 1 14 -14" fill="#b2bba4" stroke="#b2bba4" stroke-width="0"/>
		<path d="M503 219 v12 a14 14 90 0 1 -14 14 H443 a14 14 90 0 1 -14 -14 V219 H74" fill="#ccd6ba" stroke="#ccd6ba" stroke-width="0"/>
		<rect x="429" y="193" width="74" height="52" fill="none" rx="14" stroke="#85956b" stroke-width="1.5"/>
		<line x1="429" y1="219" x2="503" y2="219" stroke="#85956b" stroke-width="1"/>
		<text x="436" y="211.6" fill="#27360c" font-family="Courier New" font-size="14">Agréger</text>
	</g>
	<text x="471" y="131" fill="#726f83" font-family="Courier New" font-size="12">1,N</text>
	<text x="376" y="235" fill="#726f83" font-family="Courier New" font-size="12">1,1</text>
</g>

<!-- Association VERIFIER -->
<g>
	<line x1="846" y1="219" x2="656" y2="219" stroke="#726f83" stroke-width="1"/>
	<line x1="656" y1="367" x2="656" y2="219" stroke="#726f83" stroke-width="1"/>
	<g>
		<path d="M683 193 a14 14 90 0 1 14 14 V219 h-82 V207 a14 14 90 0 1 14 -14" fill="#b2bba4" stroke="#b2bba4" stroke-width="0"/>
		<path d="M697 219 v12 a14 14 90 0 1 -14 14 H629 a14 14 90 0 1 -14 -14 V219 H82" fill="#ccd6ba" stroke="#ccd6ba" stroke-width="0"/>
		<rect x="615" y="193" width="82" height="52" fill="none" rx="14" stroke="#85956b" stroke-width="1.5"/>
		<line x1="615" y1="219" x2="697" y2="219" stroke="#85956b" stroke-width="1"/>
		<text x="622" y="211.6" fill="#27360c" font-family="Courier New" font-size="14">Vérifier</text>
	</g>
	<text x="715" y="235" fill="#726f83" font-family="Courier New" font-size="12">0,1</text>
	<text x="661" y="315" fill="#726f83" font-family="Courier New" font-size="12">1,1</text>
</g>

<!-- Association ACCUEILLIR -->
<g>
	<line x1="1032" y1="367" x2="1032" y2="219" stroke="#726f83" stroke-width="1"/>
	<line x1="846" y1="219" x2="1032" y2="219" stroke="#726f83" stroke-width="1"/>
	<g>
		<path d="M1068 193 a14 14 90 0 1 14 14 V219 h-100 V207 a14 14 90 0 1 14 -14" fill="#b2bba4" stroke="#b2bba4" stroke-width="0"/>
		<path d="M1082 219 v12 a14 14 90 0 1 -14 14 H996 a14 14 90 0 1 -14 -14 V219 H100" fill="#ccd6ba" stroke="#ccd6ba" stroke-width="0"/>
		<rect x="982" y="193" width="100" height="52" fill="none" rx="14" stroke="#85956b" stroke-width="1.5"/>
		<line x1="982" y1="219" x2="1082" y2="219" stroke="#85956b" stroke-width="1"/>
		<text x="990" y="211.6" fill="#27360c" font-family="Courier New" font-size="14">Accueillir</text>
	</g>
	<text x="1037" y="315" fill="#726f83" font-family="Courier New" font-size="12">0,N</text>
	<text x="954" y="235" fill="#726f83" font-family="Courier New" font-size="12">1,1</text>
</g>

<!-- Association DETECTER -->
<g>
	<line x1="268" y1="488" x2="268" y2="367" stroke="#726f83" stroke-width="1"/>
	<line x1="268" y1="219" x2="268" y2="367" stroke="#726f83" stroke-width="1"/>
	<g>
		<path d="M295 341 a14 14 90 0 1 14 14 V367 h-82 V355 a14 14 90 0 1 14 -14" fill="#b2bba4" stroke="#b2bba4" stroke-width="0"/>
		<path d="M309 367 v12 a14 14 90 0 1 -14 14 H241 a14 14 90 0 1 -14 -14 V367 H82" fill="#ccd6ba" stroke="#ccd6ba" stroke-width="0"/>
		<rect x="227" y="341" width="82" height="52" fill="none" rx="14" stroke="#85956b" stroke-width="1.5"/>
		<line x1="227" y1="367" x2="309" y2="367" stroke="#85956b" stroke-width="1"/>
		<text x="234" y="359.6" fill="#27360c" font-family="Courier New" font-size="14">Détecter</text>
	</g>
	<text x="240" y="427" fill="#726f83" font-family="Courier New" font-size="12">0,N</text>
	<text x="273" y="315" fill="#726f83" font-family="Courier New" font-size="12">1,1</text>
</g>

<!-- Association PORTER_SUR -->
<g>
	<line x1="656" y1="367" x2="466" y2="367" stroke="#726f83" stroke-width="1"/>
	<line x1="268" y1="488" x2="466" y2="367" stroke="#726f83" stroke-width="1"/>
	<g>
		<path d="M502 341 a14 14 90 0 1 14 14 V367 h-100 V355 a14 14 90 0 1 14 -14" fill="#b2bba4" stroke="#b2bba4" stroke-width="0"/>
		<path d="M516 367 v12 a14 14 90 0 1 -14 14 H430 a14 14 90 0 1 -14 -14 V367 H100" fill="#ccd6ba" stroke="#ccd6ba" stroke-width="0"/>
		<rect x="416" y="341" width="100" height="52" fill="none" rx="14" stroke="#85956b" stroke-width="1.5"/>
		<line x1="416" y1="367" x2="516" y2="367" stroke="#85956b" stroke-width="1"/>
		<text x="424" y="359.6" fill="#27360c" font-family="Courier New" font-size="14">Porter sur</text>
	</g>
	<text x="525" y="383" fill="#726f83" font-family="Courier New" font-size="12">1,N</text>
	<text x="350" y="452.22" fill="#726f83" font-family="Courier New" font-size="12">1,1</text>
</g>

<!-- Association PRODUIRE -->
<g>
	<line x1="846" y1="219" x2="846" y2="367" stroke="#726f83" stroke-width="1"/>
	<line x1="656" y1="488" x2="846" y2="367" stroke="#726f83" stroke-width="1"/>
	<g>
		<path d="M873 341 a14 14 90 0 1 14 14 V367 h-82 V355 a14 14 90 0 1 14 -14" fill="#b2bba4" stroke="#b2bba4" stroke-width="0"/>
		<path d="M887 367 v12 a14 14 90 0 1 -14 14 H819 a14 14 90 0 1 -14 -14 V367 H82" fill="#ccd6ba" stroke="#ccd6ba" stroke-width="0"/>
		<rect x="805" y="341" width="82" height="52" fill="none" rx="14" stroke="#85956b" stroke-width="1.5"/>
		<line x1="805" y1="367" x2="887" y2="367" stroke="#85956b" stroke-width="1"/>
		<text x="812" y="359.6" fill="#27360c" font-family="Courier New" font-size="14">Produire</text>
	</g>
	<text x="851" y="315" fill="#726f83" font-family="Courier New" font-size="12">1,1</text>
	<text x="702.0" y="436" fill="#726f83" font-family="Courier New" font-size="12">1,1</text>
</g>

<!-- Association COMPORTER -->
<g>
	<line x1="1218" y1="488" x2="1218" y2="367" stroke="#726f83" stroke-width="1"/>
	<line x1="1032" y1="367" x2="1218" y2="367" stroke="#726f83" stroke-width="1"/>
	<g>
		<path d="M1250 341 a14 14 90 0 1 14 14 V367 h-92 V355 a14 14 90 0 1 14 -14" fill="#b2bba4" stroke="#b2bba4" stroke-width="0"/>
		<path d="M1264 367 v12 a14 14 90 0 1 -14 14 H1186 a14 14 90 0 1 -14 -14 V367 H92" fill="#ccd6ba" stroke="#ccd6ba" stroke-width="0"/>
		<rect x="1172" y="341" width="92" height="52" fill="none" rx="14" stroke="#85956b" stroke-width="1.5"/>
		<line x1="1172" y1="367" x2="1264" y2="367" stroke="#85956b" stroke-width="1"/>
		<text x="1180" y="359.6" fill="#27360c" font-family="Courier New" font-size="14">Comporter</text>
	</g>
	<text x="1223" y="436" fill="#726f83" font-family="Courier New" font-size="12">1,N</text>
	<text x="1106" y="383" fill="#726f83" font-family="Courier New" font-size="12">1,1</text>
</g>

<!-- Association COMPRENDRE -->
<g>
	<line x1="656" y1="488" x2="466" y2="488" stroke="#726f83" stroke-width="1"/>
	<line x1="268" y1="488" x2="466" y2="488" stroke="#726f83" stroke-width="1"/>
	<g>
		<path d="M502 462 a14 14 90 0 1 14 14 V488 h-100 V476 a14 14 90 0 1 14 -14" fill="#b2bba4" stroke="#b2bba4" stroke-width="0"/>
		<path d="M516 488 v12 a14 14 90 0 1 -14 14 H430 a14 14 90 0 1 -14 -14 V488 H100" fill="#ccd6ba" stroke="#ccd6ba" stroke-width="0"/>
		<rect x="416" y="462" width="100" height="52" fill="none" rx="14" stroke="#85956b" stroke-width="1.5"/>
		<line x1="416" y1="488" x2="516" y2="488" stroke="#85956b" stroke-width="1"/>
		<text x="424" y="480.6" fill="#27360c" font-family="Courier New" font-size="14">Comprendre</text>
	</g>
	<text x="521" y="504" fill="#726f83" font-family="Courier New" font-size="12">1,N</text>
	<text x="350" y="504" fill="#726f83" font-family="Courier New" font-size="12">1,1</text>
</g>

<!-- Association REFERENCER -->
<g>
	<line x1="656" y1="488" x2="846" y2="488" stroke="#726f83" stroke-width="1"/>
	<line x1="1032" y1="488" x2="846" y2="488" stroke="#726f83" stroke-width="1"/>
	<g>
		<path d="M882 462 a14 14 90 0 1 14 14 V488 h-100 V476 a14 14 90 0 1 14 -14" fill="#b2bba4" stroke="#b2bba4" stroke-width="0"/>
		<path d="M896 488 v12 a14 14 90 0 1 -14 14 H810 a14 14 90 0 1 -14 -14 V488 H100" fill="#ccd6ba" stroke="#ccd6ba" stroke-width="0"/>
		<rect x="796" y="462" width="100" height="52" fill="none" rx="14" stroke="#85956b" stroke-width="1.5"/>
		<line x1="796" y1="488" x2="896" y2="488" stroke="#85956b" stroke-width="1"/>
		<text x="804" y="480.6" fill="#27360c" font-family="Courier New" font-size="14">Référencer</text>
	</g>
	<text x="768" y="504" fill="#726f83" font-family="Courier New" font-size="12">1,1</text>
	<text x="918" y="504" fill="#726f83" font-family="Courier New" font-size="12">1,1</text>
</g>

<!-- Association DECOUPER -->
<g>
	<line x1="466" y1="618" x2="268" y2="618" stroke="#726f83" stroke-width="1"/>
	<line x1="268" y1="488" x2="268" y2="618" stroke="#726f83" stroke-width="1"/>
	<g>
		<path d="M295 592 a14 14 90 0 1 14 14 V618 h-82 V606 a14 14 90 0 1 14 -14" fill="#b2bba4" stroke="#b2bba4" stroke-width="0"/>
		<path d="M309 618 v12 a14 14 90 0 1 -14 14 H241 a14 14 90 0 1 -14 -14 V618 H82" fill="#ccd6ba" stroke="#ccd6ba" stroke-width="0"/>
		<rect x="227" y="592" width="82" height="52" fill="none" rx="14" stroke="#85956b" stroke-width="1.5"/>
		<line x1="227" y1="618" x2="309" y2="618" stroke="#85956b" stroke-width="1"/>
		<text x="234" y="610.6" fill="#27360c" font-family="Courier New" font-size="14">Découper</text>
	</g>
	<text x="335" y="634" fill="#726f83" font-family="Courier New" font-size="12">1,N</text>
	<text x="273" y="557" fill="#726f83" font-family="Courier New" font-size="12">1,1</text>
</g>

<!-- Association CONTENIR -->
<g>
	<line x1="656" y1="488" x2="656" y2="618" stroke="#726f83" stroke-width="1"/>
	<line x1="466" y1="618" x2="656" y2="618" stroke="#726f83" stroke-width="1"/>
	<g>
		<path d="M683 592 a14 14 90 0 1 14 14 V618 h-82 V606 a14 14 90 0 1 14 -14" fill="#b2bba4" stroke="#b2bba4" stroke-width="0"/>
		<path d="M697 618 v12 a14 14 90 0 1 -14 14 H629 a14 14 90 0 1 -14 -14 V618 H82" fill="#ccd6ba" stroke="#ccd6ba" stroke-width="0"/>
		<rect x="615" y="592" width="82" height="52" fill="none" rx="14" stroke="#85956b" stroke-width="1.5"/>
		<line x1="615" y1="618" x2="697" y2="618" stroke="#85956b" stroke-width="1"/>
		<text x="622" y="610.6" fill="#27360c" font-family="Courier New" font-size="14">Contenir</text>
	</g>
	<text x="628" y="548" fill="#726f83" font-family="Courier New" font-size="12">1,N</text>
	<text x="574" y="634" fill="#726f83" font-family="Courier New" font-size="12">1,1</text>
</g>

<!-- Association JOINDRE -->
<g>
	<line x1="656" y1="488" x2="846" y2="618" stroke="#726f83" stroke-width="1"/>
	<line x1="1032" y1="618" x2="846" y2="618" stroke="#726f83" stroke-width="1"/>
	<g>
		<path d="M869 592 a14 14 90 0 1 14 14 V618 h-74 V606 a14 14 90 0 1 14 -14" fill="#b2bba4" stroke="#b2bba4" stroke-width="0"/>
		<path d="M883 618 v12 a14 14 90 0 1 -14 14 H823 a14 14 90 0 1 -14 -14 V618 H74" fill="#ccd6ba" stroke="#ccd6ba" stroke-width="0"/>
		<rect x="809" y="592" width="74" height="52" fill="none" rx="14" stroke="#85956b" stroke-width="1.5"/>
		<line x1="809" y1="618" x2="883" y2="618" stroke="#85956b" stroke-width="1"/>
		<text x="816" y="610.6" fill="#27360c" font-family="Courier New" font-size="14">Joindre</text>
	</g>
	<text x="697.54" y="548" fill="#726f83" font-family="Courier New" font-size="12">0,1</text>
	<text x="927" y="634" fill="#726f83" font-family="Courier New" font-size="12">1,1</text>
</g>

<!-- Association POSSEDER -->
<g>
	<line x1="1369" y1="618" x2="1218" y2="618" stroke="#726f83" stroke-width="1"/>
	<line x1="1218" y1="488" x2="1218" y2="618" stroke="#726f83" stroke-width="1"/>
	<g>
		<path d="M1245 592 a14 14 90 0 1 14 14 V618 h-82 V606 a14 14 90 0 1 14 -14" fill="#b2bba4" stroke="#b2bba4" stroke-width="0"/>
		<path d="M1259 618 v12 a14 14 90 0 1 -14 14 H1191 a14 14 90 0 1 -14 -14 V618 H82" fill="#ccd6ba" stroke="#ccd6ba" stroke-width="0"/>
		<rect x="1177" y="592" width="82" height="52" fill="none" rx="14" stroke="#85956b" stroke-width="1.5"/>
		<line x1="1177" y1="618" x2="1259" y2="618" stroke="#85956b" stroke-width="1"/>
		<text x="1184" y="610.6" fill="#27360c" font-family="Courier New" font-size="14">Posséder</text>
	</g>
	<text x="1264" y="634" fill="#726f83" font-family="Courier New" font-size="12">1,N</text>
	<text x="1223" y="548" fill="#726f83" font-family="Courier New" font-size="12">1,1</text>
</g>

<!-- Entity TAXON -->
<g>
	<g>
		<rect x="9" y="18" width="172" height="26" fill="#97b8ff" stroke="none" stroke-width="0" opacity="1"/>
		<rect x="9" y="44" width="172" height="62" fill="#c0d4ff" stroke="none" stroke-width="0" opacity="1"/>
		<rect x="9" y="18" width="172" height="88" fill="none" stroke="#578dff" stroke-width="1.5" opacity="1"/>
		<line x1="9" y1="44" x2="181" y2="44" stroke="#578dff" stroke-width="1"/>
	</g>
	<text x="74" y="36.6" fill="#131114" font-family="Courier New" font-size="14">Taxon</text>
	<text x="14" y="62.6" fill="#3e3c42" font-family="Courier New" font-size="14">code</text>
	<line x1="14" y1="65" x2="49" y2="65" stroke="#3e3c42" stroke-width="1"/>
	<text x="14" y="80.6" fill="#3e3c42" font-family="Courier New" font-size="14">nom latin</text>
	<text x="14" y="98.6" fill="#3e3c42" font-family="Courier New" font-size="14">nom vernaculaire FR</text>
</g>

<!-- Entity RESULTATS_D_IDENTIFICATION -->
<g>
	<g>
		<rect x="351" y="9" width="230" height="26" fill="#97b8ff" stroke="none" stroke-width="0" opacity="1"/>
		<rect x="351" y="35" width="230" height="80" fill="#c0d4ff" stroke="none" stroke-width="0" opacity="1"/>
		<rect x="351" y="9" width="230" height="106" fill="none" stroke="#578dff" stroke-width="1.5" opacity="1"/>
		<line x1="351" y1="35" x2="581" y2="35" stroke="#578dff" stroke-width="1"/>
	</g>
	<text x="356" y="27.6" fill="#131114" font-family="Courier New" font-size="14">Résultats d’identification</text>
	<text x="356" y="53.6" fill="#3e3c42" font-family="Courier New" font-size="14">réf résultats</text>
	<line x1="356" y1="56" x2="466" y2="56" stroke="#3e3c42" stroke-width="1"/>
	<text x="356" y="71.6" fill="#3e3c42" font-family="Courier New" font-size="14">chemin</text>
	<text x="356" y="89.6" fill="#3e3c42" font-family="Courier New" font-size="14">format détecté</text>
	<text x="356" y="107.6" fill="#3e3c42" font-family="Courier New" font-size="14">date d’import</text>
</g>

<!-- Entity ENREGISTREUR -->
<g>
	<g>
		<rect x="959" y="27" width="146" height="26" fill="#97b8ff" stroke="none" stroke-width="0" opacity="1"/>
		<rect x="959" y="53" width="146" height="44" fill="#c0d4ff" stroke="none" stroke-width="0" opacity="1"/>
		<rect x="959" y="27" width="146" height="70" fill="none" stroke="#578dff" stroke-width="1.5" opacity="1"/>
		<line x1="959" y1="53" x2="1105" y2="53" stroke="#578dff" stroke-width="1"/>
	</g>
	<text x="981" y="45.6" fill="#131114" font-family="Courier New" font-size="14">Enregistreur</text>
	<text x="964" y="71.6" fill="#3e3c42" font-family="Courier New" font-size="14">n° de série</text>
	<line x1="964" y1="74" x2="1058" y2="74" stroke="#3e3c42" stroke-width="1"/>
	<text x="964" y="89.6" fill="#3e3c42" font-family="Courier New" font-size="14">modèle / version</text>
</g>

<!-- Entity OBSERVATION -->
<g>
	<g>
		<rect x="165" y="139" width="206" height="26" fill="#97b8ff" stroke="none" stroke-width="0" opacity="1"/>
		<rect x="165" y="165" width="206" height="134" fill="#c0d4ff" stroke="none" stroke-width="0" opacity="1"/>
		<rect x="165" y="139" width="206" height="160" fill="none" stroke="#578dff" stroke-width="1.5" opacity="1"/>
		<line x1="165" y1="165" x2="371" y2="165" stroke="#578dff" stroke-width="1"/>
	</g>
	<text x="221" y="157.6" fill="#131114" font-family="Courier New" font-size="14">Observation</text>
	<text x="170" y="183.6" fill="#3e3c42" font-family="Courier New" font-size="14">réf observation</text>
	<line x1="170" y1="186" x2="297" y2="186" stroke="#3e3c42" stroke-width="1"/>
	<text x="170" y="201.6" fill="#3e3c42" font-family="Courier New" font-size="14">temps début</text>
	<text x="170" y="219.6" fill="#3e3c42" font-family="Courier New" font-size="14">temps fin</text>
	<text x="170" y="237.6" fill="#3e3c42" font-family="Courier New" font-size="14">taxon Tadarida</text>
	<text x="170" y="255.6" fill="#3e3c42" font-family="Courier New" font-size="14">probabilité Tadarida</text>
	<text x="170" y="273.6" fill="#3e3c42" font-family="Courier New" font-size="14">taxon observateur</text>
	<text x="170" y="291.6" fill="#3e3c42" font-family="Courier New" font-size="14">probabilité observateur</text>
</g>

<!-- Entity PASSAGE -->
<g>
	<g>
		<rect x="743" y="139" width="206" height="26" fill="#97b8ff" stroke="none" stroke-width="0" opacity="1"/>
		<rect x="743" y="165" width="206" height="134" fill="#c0d4ff" stroke="none" stroke-width="0" opacity="1"/>
		<rect x="743" y="139" width="206" height="160" fill="none" stroke="#578dff" stroke-width="1.5" opacity="1"/>
		<line x1="743" y1="165" x2="949" y2="165" stroke="#578dff" stroke-width="1"/>
	</g>
	<text x="816" y="157.6" fill="#131114" font-family="Courier New" font-size="14">Passage</text>
	<text x="748" y="183.6" fill="#3e3c42" font-family="Courier New" font-size="14">réf passage</text>
	<line x1="748" y1="186" x2="842" y2="186" stroke="#3e3c42" stroke-width="1"/>
	<text x="748" y="201.6" fill="#3e3c42" font-family="Courier New" font-size="14">n° de passage</text>
	<text x="748" y="219.6" fill="#3e3c42" font-family="Courier New" font-size="14">année</text>
	<text x="748" y="237.6" fill="#3e3c42" font-family="Courier New" font-size="14">date d’enregistrement</text>
	<text x="748" y="255.6" fill="#3e3c42" font-family="Courier New" font-size="14">heure début / fin</text>
	<text x="748" y="273.6" fill="#3e3c42" font-family="Courier New" font-size="14">verdict de vérification</text>
	<text x="748" y="291.6" fill="#3e3c42" font-family="Courier New" font-size="14">statut workflow</text>
</g>

<!-- Entity MICRO -->
<g>
	<g>
		<rect x="1115" y="157" width="206" height="26" fill="#97b8ff" stroke="none" stroke-width="0" opacity="1"/>
		<rect x="1115" y="183" width="206" height="98" fill="#c0d4ff" stroke="none" stroke-width="0" opacity="1"/>
		<rect x="1115" y="157" width="206" height="124" fill="none" stroke="#578dff" stroke-width="1.5" opacity="1"/>
		<line x1="1115" y1="183" x2="1321" y2="183" stroke="#578dff" stroke-width="1"/>
	</g>
	<text x="1197" y="175.6" fill="#131114" font-family="Courier New" font-size="14">Micro</text>
	<text x="1120" y="201.6" fill="#3e3c42" font-family="Courier New" font-size="14">réf micro</text>
	<line x1="1120" y1="204" x2="1197" y2="204" stroke="#3e3c42" stroke-width="1"/>
	<text x="1120" y="219.6" fill="#3e3c42" font-family="Courier New" font-size="14">modèle / référence</text>
	<text x="1120" y="237.6" fill="#3e3c42" font-family="Courier New" font-size="14">bande passante</text>
	<text x="1120" y="255.6" fill="#3e3c42" font-family="Courier New" font-size="14">sensibilité</text>
	<text x="1120" y="273.6" fill="#3e3c42" font-family="Courier New" font-size="14">date de mise en service</text>
</g>

<!-- Entity GROUPE_TAXONOMIQUE -->
<g>
	<g>
		<rect x="13" y="323" width="164" height="26" fill="#97b8ff" stroke="none" stroke-width="0" opacity="1"/>
		<rect x="13" y="349" width="164" height="62" fill="#c0d4ff" stroke="none" stroke-width="0" opacity="1"/>
		<rect x="13" y="323" width="164" height="88" fill="none" stroke="#578dff" stroke-width="1.5" opacity="1"/>
		<line x1="13" y1="349" x2="177" y2="349" stroke="#578dff" stroke-width="1"/>
	</g>
	<text x="19" y="341.6" fill="#131114" font-family="Courier New" font-size="14">Groupe taxonomique</text>
	<text x="18" y="367.6" fill="#3e3c42" font-family="Courier New" font-size="14">réf groupe</text>
	<line x1="18" y1="370" x2="103" y2="370" stroke="#3e3c42" stroke-width="1"/>
	<text x="18" y="385.6" fill="#3e3c42" font-family="Courier New" font-size="14">niveau</text>
	<text x="18" y="403.6" fill="#3e3c42" font-family="Courier New" font-size="14">nom</text>
</g>

<!-- Entity SELECTION_D_ECOUTE -->
<g>
	<g>
		<rect x="553" y="323" width="206" height="26" fill="#97b8ff" stroke="none" stroke-width="0" opacity="1"/>
		<rect x="553" y="349" width="206" height="62" fill="#c0d4ff" stroke="none" stroke-width="0" opacity="1"/>
		<rect x="553" y="323" width="206" height="88" fill="none" stroke="#578dff" stroke-width="1.5" opacity="1"/>
		<line x1="553" y1="349" x2="759" y2="349" stroke="#578dff" stroke-width="1"/>
	</g>
	<text x="580" y="341.6" fill="#131114" font-family="Courier New" font-size="14">Sélection d’écoute</text>
	<text x="558" y="367.6" fill="#3e3c42" font-family="Courier New" font-size="14">réf sélection</text>
	<line x1="558" y1="370" x2="668" y2="370" stroke="#3e3c42" stroke-width="1"/>
	<text x="558" y="385.6" fill="#3e3c42" font-family="Courier New" font-size="14">méthode de constitution</text>
	<text x="558" y="403.6" fill="#3e3c42" font-family="Courier New" font-size="14">taille</text>
</g>

<!-- Entity POINT_D_ECOUTE -->
<g>
	<g>
		<rect x="963" y="323" width="138" height="26" fill="#97b8ff" stroke="none" stroke-width="0" opacity="1"/>
		<rect x="963" y="349" width="138" height="62" fill="#c0d4ff" stroke="none" stroke-width="0" opacity="1"/>
		<rect x="963" y="323" width="138" height="88" fill="none" stroke="#578dff" stroke-width="1.5" opacity="1"/>
		<line x1="963" y1="349" x2="1101" y2="349" stroke="#578dff" stroke-width="1"/>
	</g>
	<text x="973" y="341.6" fill="#131114" font-family="Courier New" font-size="14">Point d’écoute</text>
	<text x="968" y="367.6" fill="#3e3c42" font-family="Courier New" font-size="14">code</text>
	<line x1="968" y1="370" x2="1003" y2="370" stroke="#3e3c42" stroke-width="1"/>
	<text x="968" y="385.6" fill="#3e3c42" font-family="Courier New" font-size="14">coordonnées GPS</text>
	<text x="968" y="403.6" fill="#3e3c42" font-family="Courier New" font-size="14">descriptif</text>
</g>

<!-- Entity SEQUENCE_D_ECOUTE -->
<g>
	<g>
		<rect x="191" y="435" width="154" height="26" fill="#97b8ff" stroke="none" stroke-width="0" opacity="1"/>
		<rect x="191" y="461" width="154" height="80" fill="#c0d4ff" stroke="none" stroke-width="0" opacity="1"/>
		<rect x="191" y="435" width="154" height="106" fill="none" stroke="#578dff" stroke-width="1.5" opacity="1"/>
		<line x1="191" y1="461" x2="345" y2="461" stroke="#578dff" stroke-width="1"/>
	</g>
	<text x="196" y="453.6" fill="#131114" font-family="Courier New" font-size="14">Séquence d’écoute</text>
	<text x="196" y="479.6" fill="#3e3c42" font-family="Courier New" font-size="14">réf séquence</text>
	<line x1="196" y1="482" x2="298" y2="482" stroke="#3e3c42" stroke-width="1"/>
	<text x="196" y="497.6" fill="#3e3c42" font-family="Courier New" font-size="14">nom de fichier</text>
	<text x="196" y="515.6" fill="#3e3c42" font-family="Courier New" font-size="14">index</text>
	<text x="196" y="533.6" fill="#3e3c42" font-family="Courier New" font-size="14">durée</text>
</g>

<!-- Entity SESSION_D_ENREGISTREMENT -->
<g>
	<g>
		<rect x="549" y="444" width="214" height="26" fill="#97b8ff" stroke="none" stroke-width="0" opacity="1"/>
		<rect x="549" y="470" width="214" height="62" fill="#c0d4ff" stroke="none" stroke-width="0" opacity="1"/>
		<rect x="549" y="444" width="214" height="88" fill="none" stroke="#578dff" stroke-width="1.5" opacity="1"/>
		<line x1="549" y1="470" x2="763" y2="470" stroke="#578dff" stroke-width="1"/>
	</g>
	<text x="555" y="462.6" fill="#131114" font-family="Courier New" font-size="14">Session d’enregistrement</text>
	<text x="554" y="488.6" fill="#3e3c42" font-family="Courier New" font-size="14">réf session</text>
	<line x1="554" y1="491" x2="648" y2="491" stroke="#3e3c42" stroke-width="1"/>
	<text x="554" y="506.6" fill="#3e3c42" font-family="Courier New" font-size="14">chemin racine</text>
	<text x="554" y="524.6" fill="#3e3c42" font-family="Courier New" font-size="14">volume total</text>
</g>

<!-- Entity JOURNAL_DU_CAPTEUR -->
<g>
	<g>
		<rect x="946" y="435" width="172" height="26" fill="#97b8ff" stroke="none" stroke-width="0" opacity="1"/>
		<rect x="946" y="461" width="172" height="80" fill="#c0d4ff" stroke="none" stroke-width="0" opacity="1"/>
		<rect x="946" y="435" width="172" height="106" fill="none" stroke="#578dff" stroke-width="1.5" opacity="1"/>
		<line x1="946" y1="461" x2="1118" y2="461" stroke="#578dff" stroke-width="1"/>
	</g>
	<text x="956" y="453.6" fill="#131114" font-family="Courier New" font-size="14">Journal du capteur</text>
	<text x="951" y="479.6" fill="#3e3c42" font-family="Courier New" font-size="14">réf journal</text>
	<line x1="951" y1="482" x2="1045" y2="482" stroke="#3e3c42" stroke-width="1"/>
	<text x="951" y="497.6" fill="#3e3c42" font-family="Courier New" font-size="14">chemin</text>
	<text x="951" y="515.6" fill="#3e3c42" font-family="Courier New" font-size="14">évènements parsés</text>
	<text x="951" y="533.6" fill="#3e3c42" font-family="Courier New" font-size="14">anomalies détectées</text>
</g>

<!-- Entity SITE_DE_SUIVI -->
<g>
	<g>
		<rect x="1158" y="444" width="120" height="26" fill="#97b8ff" stroke="none" stroke-width="0" opacity="1"/>
		<rect x="1158" y="470" width="120" height="62" fill="#c0d4ff" stroke="none" stroke-width="0" opacity="1"/>
		<rect x="1158" y="444" width="120" height="88" fill="none" stroke="#578dff" stroke-width="1.5" opacity="1"/>
		<line x1="1158" y1="470" x2="1278" y2="470" stroke="#578dff" stroke-width="1"/>
	</g>
	<text x="1163" y="462.6" fill="#131114" font-family="Courier New" font-size="14">Site de suivi</text>
	<text x="1163" y="488.6" fill="#3e3c42" font-family="Courier New" font-size="14">n° carré</text>
	<line x1="1163" y1="491" x2="1231" y2="491" stroke="#3e3c42" stroke-width="1"/>
	<text x="1163" y="506.6" fill="#3e3c42" font-family="Courier New" font-size="14">nom convivial</text>
	<text x="1163" y="524.6" fill="#3e3c42" font-family="Courier New" font-size="14">protocole</text>
</g>

<!-- Entity ENREGISTREMENT_ORIGINAL -->
<g>
	<g>
		<rect x="363" y="565" width="206" height="26" fill="#97b8ff" stroke="none" stroke-width="0" opacity="1"/>
		<rect x="363" y="591" width="206" height="80" fill="#c0d4ff" stroke="none" stroke-width="0" opacity="1"/>
		<rect x="363" y="565" width="206" height="106" fill="none" stroke="#578dff" stroke-width="1.5" opacity="1"/>
		<line x1="363" y1="591" x2="569" y2="591" stroke="#578dff" stroke-width="1"/>
	</g>
	<text x="369" y="583.6" fill="#131114" font-family="Courier New" font-size="14">Enregistrement original</text>
	<text x="368" y="609.6" fill="#3e3c42" font-family="Courier New" font-size="14">réf original</text>
	<line x1="368" y1="612" x2="470" y2="612" stroke="#3e3c42" stroke-width="1"/>
	<text x="368" y="627.6" fill="#3e3c42" font-family="Courier New" font-size="14">nom de fichier</text>
	<text x="368" y="645.6" fill="#3e3c42" font-family="Courier New" font-size="14">durée</text>
	<text x="368" y="663.6" fill="#3e3c42" font-family="Courier New" font-size="14">échantillonnage</text>
</g>

<!-- Entity RELEVE_CLIMATIQUE -->
<g>
	<g>
		<rect x="955" y="574" width="154" height="26" fill="#97b8ff" stroke="none" stroke-width="0" opacity="1"/>
		<rect x="955" y="600" width="154" height="62" fill="#c0d4ff" stroke="none" stroke-width="0" opacity="1"/>
		<rect x="955" y="574" width="154" height="88" fill="none" stroke="#578dff" stroke-width="1.5" opacity="1"/>
		<line x1="955" y1="600" x2="1109" y2="600" stroke="#578dff" stroke-width="1"/>
	</g>
	<text x="960" y="592.6" fill="#131114" font-family="Courier New" font-size="14">Relevé climatique</text>
	<text x="960" y="618.6" fill="#3e3c42" font-family="Courier New" font-size="14">réf relevé</text>
	<line x1="960" y1="621" x2="1045" y2="621" stroke="#3e3c42" stroke-width="1"/>
	<text x="960" y="636.6" fill="#3e3c42" font-family="Courier New" font-size="14">chemin</text>
	<text x="960" y="654.6" fill="#3e3c42" font-family="Courier New" font-size="14">mesures</text>
</g>

<!-- Entity UTILISATEUR -->
<g>
	<g>
		<rect x="1292" y="583" width="154" height="26" fill="#97b8ff" stroke="none" stroke-width="0" opacity="1"/>
		<rect x="1292" y="609" width="154" height="44" fill="#c0d4ff" stroke="none" stroke-width="0" opacity="1"/>
		<rect x="1292" y="583" width="154" height="70" fill="none" stroke="#578dff" stroke-width="1.5" opacity="1"/>
		<line x1="1292" y1="609" x2="1446" y2="609" stroke="#578dff" stroke-width="1"/>
	</g>
	<text x="1322" y="601.6" fill="#131114" font-family="Courier New" font-size="14">Utilisateur</text>
	<text x="1297" y="627.6" fill="#3e3c42" font-family="Courier New" font-size="14">identifiant local</text>
	<line x1="1297" y1="630" x2="1441" y2="630" stroke="#3e3c42" stroke-width="1"/>
	<text x="1297" y="645.6" fill="#3e3c42" font-family="Courier New" font-size="14">nom affiché</text>
</g>
</svg>